<svg width="540" height="540" viewBox="0 0 540 540" fill="none" xmlns="http://www.w3.org/2000/svg">
<path d="M232.443 253.889C230.327 258.771 229.27 264.061 229.27 269.758C229.27 275.454 230.327 280.826 232.443 285.871C234.559 290.754 237.489 295.067 241.232 298.811C244.976 302.554 249.289 305.484 254.172 307.6C259.217 309.715 264.589 310.773 270.285 310.773C275.819 310.773 281.109 309.715 286.154 307.6C291.2 305.484 295.594 302.554 299.338 298.811C303.081 295.067 306.011 290.754 308.127 285.871C310.406 280.826 311.545 275.454 311.545 269.758C311.545 264.061 310.406 258.771 308.127 253.889C306.011 248.843 303.081 244.449 299.338 240.705C295.594 236.962 291.2 234.032 286.154 231.916C281.271 229.637 275.982 228.498 270.285 228.498C264.589 228.498 259.217 229.637 254.172 231.916C249.289 234.032 244.976 236.962 241.232 240.705C237.489 244.449 234.559 248.843 232.443 253.889Z" fill="#DD853C"/>
<path d="M308.346 125.488C310.462 120.443 311.52 115.072 311.52 109.375C311.52 101.562 309.729 94.5638 306.148 88.3789C302.405 82.3568 297.522 77.5553 291.5 73.9746L313.717 10.9863L290.768 0L262.936 34.9121C257.564 41.4225 252.844 47.6888 248.775 53.7109C244.544 59.5703 240.963 65.4297 238.033 71.2891C235.104 77.1484 232.906 83.1706 231.441 89.3555C229.814 95.5404 229 102.214 229 109.375C229 115.072 230.139 120.443 232.418 125.488C234.534 130.534 237.464 134.928 241.207 138.672C244.951 142.415 249.345 145.345 254.391 147.461C259.273 149.577 264.563 150.635 270.26 150.635C276.119 150.635 281.572 149.577 286.617 147.461C291.663 145.345 296.057 142.415 299.801 138.672C303.382 134.928 306.23 130.534 308.346 125.488Z" fill="url(#paint0_angular_19_246)"/>
<path d="M232.199 413.557C230.083 418.602 229.025 423.973 229.025 429.67C229.025 437.482 230.816 444.481 234.396 450.666C238.14 456.688 243.023 461.49 249.045 465.07L226.828 528.059L249.777 539.045L277.609 504.133C282.98 497.622 287.701 491.356 291.77 485.334C296.001 479.475 299.582 473.615 302.512 467.756C305.441 461.896 307.639 455.874 309.104 449.689C310.731 443.505 311.545 436.831 311.545 429.67C311.545 423.973 310.406 418.602 308.127 413.557C306.011 408.511 303.081 404.117 299.338 400.373C295.594 396.63 291.2 393.7 286.154 391.584C281.271 389.468 275.982 388.41 270.285 388.41C264.426 388.41 258.973 389.468 253.928 391.584C248.882 393.7 244.488 396.63 240.744 400.373C237.163 404.117 234.315 408.511 232.199 413.557Z" fill="url(#paint1_angular_19_246)"/>
<path d="M110.125 228.275C115.822 228.275 121.193 229.333 126.238 231.449C131.284 233.565 135.678 236.413 139.422 239.994C143.165 243.738 146.095 248.132 148.211 253.178C150.327 258.223 151.385 263.676 151.385 269.535C151.385 275.232 150.327 280.521 148.211 285.404C146.095 290.45 143.165 294.844 139.422 298.588C135.678 302.331 131.284 305.261 126.238 307.377C121.193 309.656 115.822 310.795 110.125 310.795C102.964 310.795 96.2904 309.981 90.1055 308.354C83.9206 306.889 77.8984 304.691 72.0391 301.762C66.1797 298.832 60.3203 295.251 54.4609 291.02C48.4388 286.951 42.1725 282.23 35.6621 276.859L0.75 249.027L11.7363 226.078L74.7246 248.295C78.3053 242.273 83.1068 237.39 89.1289 233.646C95.3138 230.066 102.312 228.275 110.125 228.275Z" fill="url(#paint2_angular_19_246)"/>
<path d="M414.307 307.596C419.352 309.712 424.723 310.77 430.42 310.77C438.232 310.77 445.231 308.979 451.416 305.398C457.438 301.655 462.24 296.772 465.82 290.75L528.809 312.967L539.795 290.018L504.883 262.186C498.372 256.814 492.106 252.094 486.084 248.025C480.225 243.794 474.365 240.213 468.506 237.283C462.646 234.354 456.624 232.156 450.439 230.691C444.255 229.064 437.581 228.25 430.42 228.25C424.723 228.25 419.352 229.389 414.307 231.668C409.261 233.784 404.867 236.714 401.123 240.457C397.38 244.201 394.45 248.595 392.334 253.641C390.218 258.523 389.16 263.813 389.16 269.51C389.16 275.369 390.218 280.822 392.334 285.867C394.45 290.913 397.38 295.307 401.123 299.051C404.867 302.632 409.261 305.48 414.307 307.596Z" fill="url(#paint3_angular_19_246)"/>
<path d="M186.197 127.115C190.225 131.143 193.275 135.689 195.347 140.753C197.418 145.817 198.512 150.939 198.627 156.118C198.627 161.412 197.591 166.591 195.519 171.655C193.448 176.719 190.34 181.322 186.197 185.465C182.169 189.493 177.681 192.486 172.732 194.442C167.668 196.514 162.489 197.55 157.195 197.55C151.901 197.55 146.722 196.514 141.658 194.442C136.479 192.486 131.875 189.493 127.847 185.465C122.783 180.401 118.64 175.107 115.418 169.583C112.08 164.174 109.375 158.362 107.304 152.147C105.232 145.932 103.621 139.257 102.47 132.122C101.089 124.986 99.9956 117.218 99.19 108.816L94.1836 64.4493L118.18 55.9902L147.009 116.239C153.8 114.513 160.647 114.455 167.553 116.067C174.458 117.908 180.673 121.591 186.197 127.115Z" fill="url(#paint4_angular_19_246)"/>
<path d="M345.198 398.292C347.27 403.356 350.32 407.902 354.348 411.93C359.872 417.454 366.087 421.137 372.992 422.978C379.898 424.59 386.745 424.532 393.536 422.806L422.365 483.055L446.362 474.596L441.355 430.229C440.55 421.828 439.456 414.059 438.075 406.924C436.924 399.788 435.313 393.113 433.241 386.898C431.17 380.683 428.465 374.871 425.128 369.462C421.905 363.938 417.762 358.644 412.698 353.58C408.67 349.552 404.066 346.559 398.887 344.603C393.823 342.531 388.644 341.495 383.35 341.495C378.056 341.495 372.877 342.531 367.813 344.603C362.865 346.559 358.376 349.552 354.348 353.58C350.205 357.723 347.097 362.327 345.026 367.391C342.954 372.454 341.918 377.633 341.918 382.928C342.033 388.107 343.127 393.228 345.198 398.292Z" fill="url(#paint5_angular_19_246)"/>
<path d="M127.865 353.598C131.893 349.57 136.439 346.52 141.503 344.448C146.567 342.377 151.688 341.283 156.867 341.168C162.161 341.168 167.34 342.204 172.404 344.276C177.468 346.347 182.072 349.455 186.215 353.598C190.243 357.626 193.236 362.115 195.192 367.063C197.264 372.127 198.299 377.306 198.299 382.6C198.299 387.894 197.264 393.073 195.192 398.137C193.236 403.316 190.243 407.92 186.215 411.948C181.151 417.012 175.857 421.155 170.333 424.378C164.924 427.715 159.112 430.42 152.897 432.491C146.682 434.563 140.007 436.174 132.871 437.325C125.736 438.706 117.967 439.8 109.566 440.605L65.199 445.612L56.74 421.616L116.989 392.786C115.263 385.995 115.205 379.148 116.816 372.242C118.658 365.337 122.341 359.122 127.865 353.598Z" fill="url(#paint6_angular_19_246)"/>
<path d="M399.042 194.597C404.106 192.525 408.652 189.475 412.68 185.447C418.204 179.923 421.887 173.708 423.728 166.803C425.34 159.897 425.282 153.049 423.556 146.259L483.805 117.429L475.346 93.4334L430.979 98.4397C422.578 99.2454 414.809 100.339 407.674 101.72C400.538 102.871 393.863 104.482 387.648 106.554C381.433 108.625 375.621 111.33 370.212 114.667C364.688 117.89 359.394 122.033 354.33 127.097C350.302 131.125 347.309 135.729 345.353 140.908C343.281 145.971 342.245 151.15 342.245 156.445C342.245 161.739 343.281 166.918 345.353 171.982C347.309 176.93 350.302 181.419 354.33 185.447C358.473 189.59 363.077 192.698 368.141 194.769C373.204 196.841 378.383 197.877 383.678 197.877C388.857 197.762 393.978 196.668 399.042 194.597Z" fill="url(#paint7_angular_19_246)"/>
<defs>
<radialGradient id="paint0_angular_19_246" cx="0" cy="0" r="1" gradientUnits="userSpaceOnUse" gradientTransform="translate(270.723 269.252) rotate(112.542) scale(330.037 327.89)">
<stop stop-color="#00E3A1" stop-opacity="0.7"/>
<stop offset="1" stop-color="#509BD3" stop-opacity="0.77"/>
</radialGradient>
<radialGradient id="paint1_angular_19_246" cx="0" cy="0" r="1" gradientUnits="userSpaceOnUse" gradientTransform="translate(270.723 269.252) rotate(112.542) scale(330.037 327.89)">
<stop stop-color="#00E3A1" stop-opacity="0.7"/>
<stop offset="1" stop-color="#509BD3" stop-opacity="0.77"/>
</radialGradient>
<radialGradient id="paint2_angular_19_246" cx="0" cy="0" r="1" gradientUnits="userSpaceOnUse" gradientTransform="translate(270.723 269.252) rotate(112.542) scale(330.037 327.89)">
<stop stop-color="#00E3A1" stop-opacity="0.7"/>
<stop offset="1" stop-color="#509BD3" stop-opacity="0.77"/>
</radialGradient>
<radialGradient id="paint3_angular_19_246" cx="0" cy="0" r="1" gradientUnits="userSpaceOnUse" gradientTransform="translate(270.723 269.252) rotate(112.542) scale(330.037 327.89)">
<stop stop-color="#00E3A1" stop-opacity="0.7"/>
<stop offset="1" stop-color="#509BD3" stop-opacity="0.77"/>
</radialGradient>
<radialGradient id="paint4_angular_19_246" cx="0" cy="0" r="1" gradientUnits="userSpaceOnUse" gradientTransform="translate(270.723 269.252) rotate(112.542) scale(330.037 327.89)">
<stop stop-color="#00E3A1" stop-opacity="0.7"/>
<stop offset="1" stop-color="#509BD3" stop-opacity="0.77"/>
</radialGradient>
<radialGradient id="paint5_angular_19_246" cx="0" cy="0" r="1" gradientUnits="userSpaceOnUse" gradientTransform="translate(270.723 269.252) rotate(112.542) scale(330.037 327.89)">
<stop stop-color="#00E3A1" stop-opacity="0.7"/>
<stop offset="1" stop-color="#509BD3" stop-opacity="0.77"/>
</radialGradient>
<radialGradient id="paint6_angular_19_246" cx="0" cy="0" r="1" gradientUnits="userSpaceOnUse" gradientTransform="translate(270.723 269.252) rotate(112.542) scale(330.037 327.89)">
<stop stop-color="#00E3A1" stop-opacity="0.7"/>
<stop offset="1" stop-color="#509BD3" stop-opacity="0.77"/>
</radialGradient>
<radialGradient id="paint7_angular_19_246" cx="0" cy="0" r="1" gradientUnits="userSpaceOnUse" gradientTransform="translate(270.723 269.252) rotate(112.542) scale(330.037 327.89)">
<stop stop-color="#00E3A1" stop-opacity="0.7"/>
<stop offset="1" stop-color="#509BD3" stop-opacity="0.77"/>
</radialGradient>
</defs>
</svg>
